<mxfile host="app.diagrams.net" modified="2022-10-14T19:03:17.762Z" agent="5.0 (X11; Linux x86_64) AppleWebKit/537.36 (KHTML, like Gecko) Chrome/106.0.0.0 Safari/537.36" etag="8lALScrCCu_EvdWMpYhh" version="20.4.1" type="github">
  <diagram id="uaxEks63c_jjOMtbQuF9" name="PÃ¡gina-1">
    <mxGraphModel dx="1887" dy="2162" grid="1" gridSize="10" guides="1" tooltips="1" connect="1" arrows="1" fold="1" page="1" pageScale="1" pageWidth="827" pageHeight="1169" math="0" shadow="0">
      <root>
        <mxCell id="0" />
        <mxCell id="1" parent="0" />
        <mxCell id="ioJs_AY_M7cCu3VcZFE8-1" value="VPC A 10.0.0.0/16" style="swimlane;" vertex="1" parent="1">
          <mxGeometry x="10" y="-170" width="1060" height="1070" as="geometry" />
        </mxCell>
        <mxCell id="ioJs_AY_M7cCu3VcZFE8-12" style="edgeStyle=orthogonalEdgeStyle;shape=link;rounded=0;orthogonalLoop=1;jettySize=auto;html=1;entryX=0.5;entryY=1;entryDx=0;entryDy=0;elbow=vertical;" edge="1" parent="ioJs_AY_M7cCu3VcZFE8-1" source="ioJs_AY_M7cCu3VcZFE8-2" target="ioJs_AY_M7cCu3VcZFE8-9">
          <mxGeometry relative="1" as="geometry" />
        </mxCell>
        <mxCell id="ioJs_AY_M7cCu3VcZFE8-2" value="Public Subnet A" style="swimlane;" vertex="1" parent="ioJs_AY_M7cCu3VcZFE8-1">
          <mxGeometry x="30" y="290" width="480" height="750" as="geometry" />
        </mxCell>
        <mxCell id="ioJs_AY_M7cCu3VcZFE8-15" value="Public Security Group Baston-1" style="swimlane;" vertex="1" parent="ioJs_AY_M7cCu3VcZFE8-2">
          <mxGeometry x="240" y="520" width="200" height="200" as="geometry" />
        </mxCell>
        <mxCell id="ioJs_AY_M7cCu3VcZFE8-16" value="baston-ins-1" style="rounded=0;whiteSpace=wrap;html=1;" vertex="1" parent="ioJs_AY_M7cCu3VcZFE8-15">
          <mxGeometry x="40" y="130" width="120" height="60" as="geometry" />
        </mxCell>
        <mxCell id="ioJs_AY_M7cCu3VcZFE8-18" value="from myip/32 port 22" style="rounded=0;whiteSpace=wrap;html=1;" vertex="1" parent="ioJs_AY_M7cCu3VcZFE8-15">
          <mxGeometry y="20" width="200" height="70" as="geometry" />
        </mxCell>
        <mxCell id="ioJs_AY_M7cCu3VcZFE8-19" value="Public Security Group Ins-1" style="swimlane;" vertex="1" parent="ioJs_AY_M7cCu3VcZFE8-2">
          <mxGeometry x="30" y="520" width="200" height="200" as="geometry" />
        </mxCell>
        <mxCell id="ioJs_AY_M7cCu3VcZFE8-20" value="public-ins-1" style="rounded=0;whiteSpace=wrap;html=1;" vertex="1" parent="ioJs_AY_M7cCu3VcZFE8-19">
          <mxGeometry x="40" y="130" width="120" height="60" as="geometry" />
        </mxCell>
        <mxCell id="ioJs_AY_M7cCu3VcZFE8-21" value="from 0.0.0.0/0 port 22" style="rounded=0;whiteSpace=wrap;html=1;" vertex="1" parent="ioJs_AY_M7cCu3VcZFE8-19">
          <mxGeometry y="20" width="200" height="70" as="geometry" />
        </mxCell>
        <mxCell id="ioJs_AY_M7cCu3VcZFE8-37" value="" style="group" vertex="1" connectable="0" parent="ioJs_AY_M7cCu3VcZFE8-2">
          <mxGeometry x="240" y="130" width="200" height="220" as="geometry" />
        </mxCell>
        <mxCell id="ioJs_AY_M7cCu3VcZFE8-26" value="Public Security Group Baston-1" style="swimlane;" vertex="1" parent="ioJs_AY_M7cCu3VcZFE8-37">
          <mxGeometry y="20" width="200" height="200" as="geometry" />
        </mxCell>
        <mxCell id="ioJs_AY_M7cCu3VcZFE8-27" value="baston-ins-1&lt;br&gt;&lt;b&gt;source/destination check stop&lt;/b&gt;" style="rounded=0;whiteSpace=wrap;html=1;" vertex="1" parent="ioJs_AY_M7cCu3VcZFE8-26">
          <mxGeometry x="40" y="130" width="120" height="60" as="geometry" />
        </mxCell>
        <mxCell id="ioJs_AY_M7cCu3VcZFE8-28" value="from local/16 port http/https/icmpipv4" style="rounded=0;whiteSpace=wrap;html=1;" vertex="1" parent="ioJs_AY_M7cCu3VcZFE8-26">
          <mxGeometry y="20" width="200" height="70" as="geometry" />
        </mxCell>
        <mxCell id="ioJs_AY_M7cCu3VcZFE8-30" value="LEGACY" style="rounded=0;whiteSpace=wrap;html=1;" vertex="1" parent="ioJs_AY_M7cCu3VcZFE8-37">
          <mxGeometry width="200" height="20" as="geometry" />
        </mxCell>
        <mxCell id="ioJs_AY_M7cCu3VcZFE8-39" value="NAT Gateway" style="swimlane;" vertex="1" parent="ioJs_AY_M7cCu3VcZFE8-2">
          <mxGeometry x="240" y="360" width="200" height="150" as="geometry" />
        </mxCell>
        <mxCell id="ioJs_AY_M7cCu3VcZFE8-38" value="" style="sketch=0;outlineConnect=0;fontColor=#232F3E;gradientColor=none;fillColor=#4D27AA;strokeColor=none;dashed=0;verticalLabelPosition=bottom;verticalAlign=top;align=center;html=1;fontSize=12;fontStyle=0;aspect=fixed;pointerEvents=1;shape=mxgraph.aws4.nat_gateway;" vertex="1" parent="ioJs_AY_M7cCu3VcZFE8-39">
          <mxGeometry x="61" y="40" width="78" height="78" as="geometry" />
        </mxCell>
        <mxCell id="ioJs_AY_M7cCu3VcZFE8-3" value="Private Subnet B" style="swimlane;" vertex="1" parent="ioJs_AY_M7cCu3VcZFE8-1">
          <mxGeometry x="550" y="290" width="480" height="750" as="geometry" />
        </mxCell>
        <mxCell id="ioJs_AY_M7cCu3VcZFE8-22" value="Public Security Group Baston-1" style="swimlane;" vertex="1" parent="ioJs_AY_M7cCu3VcZFE8-3">
          <mxGeometry x="30" y="520" width="200" height="200" as="geometry" />
        </mxCell>
        <mxCell id="ioJs_AY_M7cCu3VcZFE8-23" value="baston-ins-1" style="rounded=0;whiteSpace=wrap;html=1;" vertex="1" parent="ioJs_AY_M7cCu3VcZFE8-22">
          <mxGeometry x="40" y="130" width="120" height="60" as="geometry" />
        </mxCell>
        <mxCell id="ioJs_AY_M7cCu3VcZFE8-24" value="from sc-baston-1 port 22" style="rounded=0;whiteSpace=wrap;html=1;" vertex="1" parent="ioJs_AY_M7cCu3VcZFE8-22">
          <mxGeometry y="20" width="200" height="70" as="geometry" />
        </mxCell>
        <mxCell id="ioJs_AY_M7cCu3VcZFE8-9" value="Public Route Table" style="swimlane;" vertex="1" parent="ioJs_AY_M7cCu3VcZFE8-1">
          <mxGeometry x="30" y="140" width="480" height="110" as="geometry" />
        </mxCell>
        <mxCell id="ioJs_AY_M7cCu3VcZFE8-10" value="" style="outlineConnect=0;dashed=0;verticalLabelPosition=bottom;verticalAlign=top;align=center;html=1;shape=mxgraph.aws3.route_table;fillColor=#F58536;gradientColor=none;" vertex="1" parent="ioJs_AY_M7cCu3VcZFE8-9">
          <mxGeometry x="145" y="30" width="75" height="69" as="geometry" />
        </mxCell>
        <mxCell id="ioJs_AY_M7cCu3VcZFE8-25" style="edgeStyle=orthogonalEdgeStyle;shape=link;rounded=0;orthogonalLoop=1;jettySize=auto;html=1;exitX=1;exitY=0.5;exitDx=0;exitDy=0;elbow=vertical;" edge="1" parent="ioJs_AY_M7cCu3VcZFE8-1" source="ioJs_AY_M7cCu3VcZFE8-18" target="ioJs_AY_M7cCu3VcZFE8-24">
          <mxGeometry relative="1" as="geometry" />
        </mxCell>
        <mxCell id="ioJs_AY_M7cCu3VcZFE8-34" style="edgeStyle=orthogonalEdgeStyle;shape=link;rounded=0;orthogonalLoop=1;jettySize=auto;html=1;elbow=vertical;" edge="1" parent="ioJs_AY_M7cCu3VcZFE8-1" source="ioJs_AY_M7cCu3VcZFE8-31" target="ioJs_AY_M7cCu3VcZFE8-3">
          <mxGeometry relative="1" as="geometry" />
        </mxCell>
        <mxCell id="ioJs_AY_M7cCu3VcZFE8-35" style="edgeStyle=orthogonalEdgeStyle;shape=link;rounded=0;orthogonalLoop=1;jettySize=auto;html=1;exitX=0.25;exitY=1;exitDx=0;exitDy=0;entryX=1;entryY=0.75;entryDx=0;entryDy=0;elbow=vertical;" edge="1" parent="ioJs_AY_M7cCu3VcZFE8-1" source="ioJs_AY_M7cCu3VcZFE8-31" target="ioJs_AY_M7cCu3VcZFE8-26">
          <mxGeometry relative="1" as="geometry" />
        </mxCell>
        <mxCell id="ioJs_AY_M7cCu3VcZFE8-31" value="Private Route Table" style="swimlane;" vertex="1" parent="ioJs_AY_M7cCu3VcZFE8-1">
          <mxGeometry x="550" y="140" width="480" height="110" as="geometry" />
        </mxCell>
        <mxCell id="ioJs_AY_M7cCu3VcZFE8-32" value="" style="outlineConnect=0;dashed=0;verticalLabelPosition=bottom;verticalAlign=top;align=center;html=1;shape=mxgraph.aws3.route_table;fillColor=#F58536;gradientColor=none;" vertex="1" parent="ioJs_AY_M7cCu3VcZFE8-31">
          <mxGeometry x="145" y="30" width="75" height="69" as="geometry" />
        </mxCell>
        <mxCell id="ioJs_AY_M7cCu3VcZFE8-41" style="edgeStyle=orthogonalEdgeStyle;shape=link;rounded=0;orthogonalLoop=1;jettySize=auto;html=1;exitX=1;exitY=0.75;exitDx=0;exitDy=0;entryX=0.25;entryY=1;entryDx=0;entryDy=0;elbow=vertical;" edge="1" parent="ioJs_AY_M7cCu3VcZFE8-1" source="ioJs_AY_M7cCu3VcZFE8-39" target="ioJs_AY_M7cCu3VcZFE8-31">
          <mxGeometry relative="1" as="geometry" />
        </mxCell>
        <mxCell id="ioJs_AY_M7cCu3VcZFE8-40" value="NACL" style="swimlane;" vertex="1" parent="ioJs_AY_M7cCu3VcZFE8-1">
          <mxGeometry x="40" y="260" width="460" height="20" as="geometry" />
        </mxCell>
        <mxCell id="ioJs_AY_M7cCu3VcZFE8-42" value="NACL" style="swimlane;" vertex="1" parent="ioJs_AY_M7cCu3VcZFE8-1">
          <mxGeometry x="560" y="260" width="460" height="20" as="geometry" />
        </mxCell>
        <mxCell id="ioJs_AY_M7cCu3VcZFE8-8" value="Internet Gateway" style="swimlane;" vertex="1" parent="1">
          <mxGeometry x="180" y="-240" width="200" height="140" as="geometry" />
        </mxCell>
        <mxCell id="ioJs_AY_M7cCu3VcZFE8-7" value="" style="whiteSpace=wrap;html=1;aspect=fixed;" vertex="1" parent="ioJs_AY_M7cCu3VcZFE8-8">
          <mxGeometry x="55" y="34" width="90" height="90" as="geometry" />
        </mxCell>
        <mxCell id="ioJs_AY_M7cCu3VcZFE8-6" value="" style="sketch=0;outlineConnect=0;fontColor=#232F3E;gradientColor=none;fillColor=#4D27AA;strokeColor=none;dashed=0;verticalLabelPosition=bottom;verticalAlign=top;align=center;html=1;fontSize=12;fontStyle=0;aspect=fixed;pointerEvents=1;shape=mxgraph.aws4.internet_gateway;" vertex="1" parent="ioJs_AY_M7cCu3VcZFE8-8">
          <mxGeometry x="61" y="40" width="78" height="78" as="geometry" />
        </mxCell>
        <mxCell id="ioJs_AY_M7cCu3VcZFE8-43" value="VPC B 172.31.0.0/16" style="swimlane;" vertex="1" parent="1">
          <mxGeometry x="1210" y="-170" width="550" height="490" as="geometry" />
        </mxCell>
        <mxCell id="ioJs_AY_M7cCu3VcZFE8-44" style="edgeStyle=orthogonalEdgeStyle;shape=link;rounded=0;orthogonalLoop=1;jettySize=auto;html=1;entryX=0.5;entryY=1;entryDx=0;entryDy=0;elbow=vertical;" edge="1" parent="ioJs_AY_M7cCu3VcZFE8-43" source="ioJs_AY_M7cCu3VcZFE8-45" target="ioJs_AY_M7cCu3VcZFE8-63">
          <mxGeometry relative="1" as="geometry" />
        </mxCell>
        <mxCell id="ioJs_AY_M7cCu3VcZFE8-45" value="Private Subnet A" style="swimlane;" vertex="1" parent="ioJs_AY_M7cCu3VcZFE8-43">
          <mxGeometry x="31" y="200" width="480" height="270" as="geometry" />
        </mxCell>
        <mxCell id="ioJs_AY_M7cCu3VcZFE8-49" value="Public Security Group Ins-1" style="swimlane;" vertex="1" parent="ioJs_AY_M7cCu3VcZFE8-45">
          <mxGeometry x="140" y="50" width="200" height="200" as="geometry" />
        </mxCell>
        <mxCell id="ioJs_AY_M7cCu3VcZFE8-50" value="public-ins-1" style="rounded=0;whiteSpace=wrap;html=1;" vertex="1" parent="ioJs_AY_M7cCu3VcZFE8-49">
          <mxGeometry x="40" y="130" width="120" height="60" as="geometry" />
        </mxCell>
        <mxCell id="ioJs_AY_M7cCu3VcZFE8-51" value="from 0.0.0.0/0 port 22" style="rounded=0;whiteSpace=wrap;html=1;" vertex="1" parent="ioJs_AY_M7cCu3VcZFE8-49">
          <mxGeometry y="20" width="200" height="70" as="geometry" />
        </mxCell>
        <mxCell id="ioJs_AY_M7cCu3VcZFE8-63" value="Private Route Table" style="swimlane;" vertex="1" parent="ioJs_AY_M7cCu3VcZFE8-43">
          <mxGeometry x="30" y="50" width="480" height="110" as="geometry" />
        </mxCell>
        <mxCell id="ioJs_AY_M7cCu3VcZFE8-64" value="" style="outlineConnect=0;dashed=0;verticalLabelPosition=bottom;verticalAlign=top;align=center;html=1;shape=mxgraph.aws3.route_table;fillColor=#F58536;gradientColor=none;" vertex="1" parent="ioJs_AY_M7cCu3VcZFE8-63">
          <mxGeometry x="145" y="30" width="75" height="69" as="geometry" />
        </mxCell>
        <mxCell id="ioJs_AY_M7cCu3VcZFE8-71" value="NACL" style="swimlane;" vertex="1" parent="ioJs_AY_M7cCu3VcZFE8-43">
          <mxGeometry x="40" y="170" width="460" height="20" as="geometry" />
        </mxCell>
        <mxCell id="ioJs_AY_M7cCu3VcZFE8-76" style="edgeStyle=orthogonalEdgeStyle;shape=link;rounded=0;orthogonalLoop=1;jettySize=auto;html=1;entryX=0.5;entryY=1;entryDx=0;entryDy=0;elbow=vertical;" edge="1" parent="1" source="ioJs_AY_M7cCu3VcZFE8-9" target="ioJs_AY_M7cCu3VcZFE8-8">
          <mxGeometry relative="1" as="geometry" />
        </mxCell>
        <mxCell id="ioJs_AY_M7cCu3VcZFE8-81" style="edgeStyle=orthogonalEdgeStyle;shape=link;rounded=0;orthogonalLoop=1;jettySize=auto;html=1;exitX=1;exitY=0.5;exitDx=0;exitDy=0;elbow=vertical;" edge="1" parent="1" source="ioJs_AY_M7cCu3VcZFE8-78">
          <mxGeometry relative="1" as="geometry">
            <mxPoint x="1360" y="-170" as="targetPoint" />
          </mxGeometry>
        </mxCell>
        <mxCell id="ioJs_AY_M7cCu3VcZFE8-83" style="edgeStyle=orthogonalEdgeStyle;shape=link;rounded=0;orthogonalLoop=1;jettySize=auto;html=1;exitX=0;exitY=0.5;exitDx=0;exitDy=0;entryX=0.757;entryY=0.001;entryDx=0;entryDy=0;entryPerimeter=0;elbow=vertical;" edge="1" parent="1" source="ioJs_AY_M7cCu3VcZFE8-78" target="ioJs_AY_M7cCu3VcZFE8-1">
          <mxGeometry relative="1" as="geometry" />
        </mxCell>
        <mxCell id="ioJs_AY_M7cCu3VcZFE8-78" value="VPC Peering" style="swimlane;" vertex="1" parent="1">
          <mxGeometry x="1041" y="-330" width="200" height="130" as="geometry" />
        </mxCell>
        <mxCell id="ioJs_AY_M7cCu3VcZFE8-77" value="" style="outlineConnect=0;dashed=0;verticalLabelPosition=bottom;verticalAlign=top;align=center;html=1;shape=mxgraph.aws3.vpc_peering;fillColor=#F58536;gradientColor=none;" vertex="1" parent="ioJs_AY_M7cCu3VcZFE8-78">
          <mxGeometry x="65.5" y="40" width="69" height="72" as="geometry" />
        </mxCell>
        <mxCell id="ioJs_AY_M7cCu3VcZFE8-84" style="edgeStyle=orthogonalEdgeStyle;shape=link;rounded=0;orthogonalLoop=1;jettySize=auto;html=1;entryX=0;entryY=0.5;entryDx=0;entryDy=0;elbow=vertical;" edge="1" parent="1" source="ioJs_AY_M7cCu3VcZFE8-31" target="ioJs_AY_M7cCu3VcZFE8-63">
          <mxGeometry relative="1" as="geometry" />
        </mxCell>
      </root>
    </mxGraphModel>
  </diagram>
</mxfile>
